<?xml version="1.0" encoding="utf-8"?>
<!-- Generator: Adobe Illustrator 16.0.0, SVG Export Plug-In . SVG Version: 6.00 Build 0)  -->
<!DOCTYPE svg PUBLIC "-//W3C//DTD SVG 1.1//EN" "http://www.w3.org/Graphics/SVG/1.1/DTD/svg11.dtd">
<svg version="1.1" id="Layer_1" xmlns="http://www.w3.org/2000/svg" xmlns:xlink="http://www.w3.org/1999/xlink" x="0px" y="0px"
	 width="481.25px" height="481.25px" viewBox="-74 0.5 481.25 481.25" enable-background="new -74 0.5 481.25 481.25"
	 xml:space="preserve">
<g id="_x23_000000ff">
	<path d="M68.37,0.96c21-0.26,42-0.08,63-0.09c0.05,6.57,0.15,13.14-0.09,19.71c-14.55-0.1-29.09,0-43.63,0.09
		c-0.1,9.54-0.29,19.08-0.2,28.62c14.6,0.09,29.21,0.23,43.81,0.17c0.17,5.4,0.11,10.82-0.05,16.23
		c-20.94-0.14-41.88-0.08-62.82-0.06C68.44,44.07,68.48,22.52,68.37,0.96z"/>
	<path d="M138.86,0.89c21.26-0.04,42.52-0.17,63.791,0.07c-0.08,6.21-0.021,12.41-0.021,18.62c-15.47-0.05-30.95,0.02-46.42,0.2
		c0.02,2.439,0.02,4.88,0,7.32c15.45,0.25,30.89,0.28,46.33,0.37c0.06,12.73,0.03,25.45,0.11,38.17
		c-21.271-0.04-42.541-0.02-63.811,0.08c-0.11-5.14-0.12-10.27,0.03-15.41c14.74,0.04,29.49,0.06,44.229-0.06
		c0.09-3.31,0.131-6.63,0.121-9.94c-14.811,0-29.631,0.05-44.441-0.05C138.78,27.14,138.78,14.01,138.86,0.89z"/>
	<path d="M209.77,1c21.221,0,42.451,0,63.67,0c0.09,6.24,0.181,12.48-0.02,18.71c-15.54-0.01-31.08,0.08-46.62,0.11
		c0.04,2.55,0.101,5.1,0.229,7.65c15.451-0.07,30.9,0.12,46.341,0.28c0.14,12.67,0.239,25.34,0.06,38.01
		c-21.27-0.06-42.539-0.06-63.81,0.04c-0.13-5.12-0.17-10.26,0.05-15.38c14.71,0.11,29.43,0.09,44.15-0.05
		c0.039-3.32,0.109-6.64,0.08-9.95c-14.771,0.14-29.551,0.06-44.33,0.01C209.57,27.29,209.67,14.14,209.77,1z"/>
</g>
<g id="_x23_0170baff">
	<path fill="#0170BA" d="M0,92.46c113.92-0.01,227.83-0.02,341.75,0c-6.27,70.85-12.439,141.7-18.971,212.53
		c-3.879,45.27-7.879,90.54-12.1,135.779c-24.31,6.44-48.38,13.78-72.68,20.25c-22.32,6.551-44.82,12.48-67.15,18.98h-0.66
		c-21.25-6.32-42.71-11.88-63.96-18.2c-25.08-6.76-49.94-14.3-75.03-21.03c-3.27-33.909-6.22-67.84-9.13-101.77
		c-5.49-62.689-11.46-125.34-16.74-188.04C3.5,132.09,2.19,113.16,0,94.33V92.46 M171.41,120.41c-0.24,13.61,0.18,27.23-0.24,40.83
		c-39.08-0.14-78.17-0.03-117.25,0.01c0.67,13.21,2.44,26.33,4.26,39.43c36.36,1.35,72.77-0.05,109.13,1.04
		c-31.81,14.27-64.01,27.71-95.96,41.68c-2.74,1.22-5.67,2.14-8.12,3.92c0.27,14.51,2.61,28.939,3.64,43.42
		c19.38-0.07,38.75-0.381,58.13-0.41c15.53-0.08,31.07,0.23,46.6-0.109c-0.74,23.859,0.23,47.749-0.5,71.609
		c-10.45-1.55-20.77-3.88-31.18-5.73c-8.21-1.79-16.62-2.72-24.71-5.069c-1.15-11.45-1.95-22.94-2.97-34.4
		c-2.34-0.72-4.82-0.649-7.24-0.689c-11.74,0.069-23.49-0.04-35.24,0.14c1.15,22.03,3.13,44.03,6.5,65.85
		c11.58,3.021,23.18,5.98,34.74,9.13c17.71,4.82,35.64,8.83,53.38,13.57c2.11,0.45,4.24,1.23,6.43,1.05
		c1.18,14.49,0.27,29.07,0.49,43.601c4.091-0.66,8.11-1.67,12.06-2.891c33.58-9.12,67.121-18.409,100.681-27.62
		c1.67-13.199,2.45-26.489,3.771-39.72c3.489-40.22,7.01-80.439,10.67-120.649c4.289-46,8-92.05,12.319-138.05
		C264.33,120.39,217.87,120.26,171.41,120.41z"/>
</g>
<g id="_x23_29a9dfff">
	<path fill="#29A9DF" d="M171.41,120.41c46.46-0.15,92.92-0.02,139.39-0.06c-4.319,46-8.03,92.05-12.319,138.05
		c-3.66,40.21-7.181,80.43-10.67,120.649c-1.32,13.23-2.101,26.521-3.771,39.72c-33.56,9.211-67.101,18.5-100.681,27.62
		c-3.949,1.221-7.969,2.23-12.06,2.891c-0.22-14.53,0.69-29.11-0.49-43.601c0.3-0.06,0.911-0.18,1.209-0.239
		c31.23-7.841,62.25-16.471,93.41-24.591c3.94-44.199,8.311-88.379,11.08-132.67c-26.5,0.141-53.01,0.061-79.51,0.17
		c-3.859,0.021-7.721,0-11.561-0.279c14.261-7.34,29.261-13.16,43.9-19.71c14.051-6.37,28.27-12.34,42.37-18.59
		c2.72-1.25,5.62-2.29,8.011-4.15c0.939-3.45,0.889-7.06,1.26-10.59c0.81-11.2,2.25-22.34,2.789-33.55
		c-37.529-0.3-75.06-0.04-112.6-0.24C171.59,147.64,171.17,134.02,171.41,120.41z"/>
	<path fill="#29A9DF" d="M171.6,290.221c18.121-0.311,36.25,0.18,54.381,0.059c-1.01,18.53-2.551,37.03-3.51,55.561
		c-11.111,3.63-22.391,6.7-33.591,10.061c-5.97,1.819-12.101,3.26-17.78,5.93C171.83,337.97,170.86,314.08,171.6,290.221z"/>
</g>
<g id="_x23_cfcfcfff">
	<path fill="#CFCFCF" d="M53.92,161.25c39.08-0.04,78.17-0.15,117.25-0.01c0.51,43-0.13,86,0.43,128.98
		c-15.53,0.34-31.07,0.029-46.6,0.109c-19.38,0.029-38.75,0.34-58.13,0.41c-1.03-14.48-3.37-28.91-3.64-43.42
		c2.45-1.78,5.38-2.7,8.12-3.92c31.95-13.97,64.15-27.41,95.96-41.68c-36.36-1.09-72.77,0.31-109.13-1.04
		C56.36,187.58,54.59,174.46,53.92,161.25z"/>
	<path fill="#CFCFCF" d="M69.76,316.08c11.75-0.18,23.5-0.07,35.24-0.14c2.42,0.04,4.9-0.03,7.24,0.689
		c1.02,11.46,1.82,22.95,2.97,34.4c8.09,2.35,16.5,3.279,24.71,5.069c10.41,1.851,20.73,4.181,31.18,5.73
		c1,14.52-0.75,29.14,0.919,43.61c-0.299,0.06-0.91,0.18-1.209,0.239c-2.19,0.181-4.32-0.6-6.43-1.05
		c-17.74-4.74-35.67-8.75-53.38-13.57c-11.56-3.149-23.16-6.109-34.74-9.13C72.89,360.11,70.91,338.11,69.76,316.08z"/>
</g>
<g id="_x23_ffffffff">
	<path fill="#FFFFFF" d="M171.17,161.24c37.54,0.2,75.07-0.06,112.6,0.24c-0.539,11.21-1.979,22.35-2.789,33.55
		c-0.371,3.53-0.32,7.14-1.26,10.59c-2.391,1.86-5.291,2.9-8.011,4.15c-14.101,6.25-28.319,12.22-42.37,18.59
		c-14.64,6.55-29.64,12.371-43.9,19.71c3.84,0.279,7.701,0.3,11.561,0.279c26.5-0.109,53.01-0.029,79.51-0.17
		c-2.77,44.291-7.14,88.471-11.08,132.67c-31.16,8.12-62.18,16.75-93.41,24.591c-1.669-14.471,0.08-29.091-0.919-43.61
		c5.679-2.67,11.81-4.11,17.78-5.93c11.2-3.36,22.479-6.431,33.591-10.061c0.959-18.53,2.5-37.03,3.51-55.561
		c-18.131,0.121-36.26-0.369-54.381-0.059C171.04,247.24,171.68,204.24,171.17,161.24z"/>
</g>
</svg>
