<svg width="800" height="500" viewBox="0 0 800 500" fill="none" xmlns="http://www.w3.org/2000/svg">
	<path d="M242.15 5.92521C235.268 4.91315 241.426 5.53347 209.233 0.000311831L424.114 0.05539C654.857 -0.147003 652.024 -0.349443 690.076 10.3781C723.878 19.6888 766.991 42.9656 789.458 64.0159L799.776 73.944V172.032H718.403C706.259 104.226 707.078 106.521 701.006 101.664C692.91 94.9842 672.872 85.6735 658.501 81.6254C639.879 76.5652 597.374 75.5531 576.526 79.6013C524.305 90.1264 489.086 125.75 472.894 185.055C468.845 199.629 468.441 205.903 468.441 249.825C468.643 306.095 470.465 316.62 486.86 350.017C494.551 365.805 499.409 372.282 512.768 385.64C532.199 405.071 550.011 414.585 576.728 420.05C618.019 428.348 676.312 418.025 700.804 397.987C706.066 393.737 707.078 390.903 711.531 365.197C714.163 349.612 717.68 330.599 718.287 327.968H799.776V426.057L788.851 436.242C759.502 462.555 716.389 483.605 670.24 494.13C651.619 498.179 645.142 498.583 536.854 499.191L422.899 500V469.639C422.899 452.839 422.697 439.076 422.494 439.076C412.981 438.873 397.193 434.016 391.728 429.967C381.203 421.871 378.774 412.561 377.762 375.318C376.75 341.111 374.524 329.776 364.808 310.75C354.283 290.104 327.363 268.852 301.657 260.755C290.93 257.517 286.582 255.69 291.225 254.527C298.92 252.6 328.173 235.859 342.544 221.893C366.023 199.224 374.321 178.983 374.321 144.574C374.321 111.986 365.011 82.8398 347.806 61.9919C338.293 50.4547 313.397 31.226 299.229 24.5466C281.822 16.4503 257.33 8.35407 242.15 5.92521Z" fill="url(#paint0_linear)"/>
	<path d="M146.614 218.452H95V76.5652L151.269 77.1724C203.49 77.7796 210.483 76.459 231.869 89.0345C231.869 89.0345 262.553 101.61 264.565 147.408C266.577 193.205 231.625 208.13 231.625 208.13C212.801 217.238 202.478 218.452 146.614 218.452Z" fill="url(#paint1_linear)"/>
	<path d="M251.663 499.393H155.924V439.683L95 428.069V295.367H142.363C193.775 295.367 210.777 297.593 229.601 306.297C248.829 315.405 263.491 334.03 267.046 357.911C270.601 381.791 268.086 419.014 272.106 433.611C276.126 448.207 285.667 467.413 293.764 475.509C302.669 484.617 322.91 493.726 336.674 495.143C342.948 495.75 348.066 499.393 348.066 499.393C348.066 500.405 251.663 499.393 251.663 499.393Z" fill="url(#paint2_linear)"/>
	<defs>
		<linearGradient id="paint0_linear" x1="-1.50001" y1="500" x2="800" y2="0.000296798" gradientUnits="userSpaceOnUse">
			<stop stop-color="#BD4932"/>
			<stop offset="1" stop-color="#BC327C"/>
		</linearGradient>
		<linearGradient id="paint1_linear" x1="-1.50001" y1="500" x2="800" y2="0.000296798" gradientUnits="userSpaceOnUse">
			<stop stop-color="#BD4932"/>
			<stop offset="1" stop-color="#BC327C"/>
		</linearGradient>
		<linearGradient id="paint2_linear" x1="-1.50001" y1="500" x2="800" y2="0.000296798" gradientUnits="userSpaceOnUse">
			<stop stop-color="#BD4932"/>
			<stop offset="1" stop-color="#BC327C"/>
		</linearGradient>
	</defs>
</svg>
