<?xml version="1.0" encoding="utf-8"?>
<!-- Generator: Adobe Illustrator 16.0.0, SVG Export Plug-In . SVG Version: 6.00 Build 0)  -->
<!DOCTYPE svg PUBLIC "-//W3C//DTD SVG 1.1//EN" "http://www.w3.org/Graphics/SVG/1.1/DTD/svg11.dtd">
<svg version="1.1" id="Layer_1" xmlns="http://www.w3.org/2000/svg" xmlns:xlink="http://www.w3.org/1999/xlink" x="0px" y="0px"
	 width="596.281px" height="596.281px" viewBox="120.5 -0.5 596.281 596.281" enable-background="new 120.5 -0.5 596.281 596.281"
	 xml:space="preserve">
<title>HTML5 Logo</title>
<path d="M249.337,0h26.741v26.509h24.648V0h26.741v80.223h-26.741V53.482h-24.416v26.741h-26.974 M362.812,26.741H339.21V0h74.062
	v26.741h-23.718v53.482h-26.741 M425.013,0h28.021l17.207,28.252L487.449,0h28.02v80.223h-26.74V40.46l-18.719,28.834L451.291,40.46
	v39.763h-26.277 M528.722,0h26.742v53.715h37.902v26.508h-64.645"/>
<path fill="#E44D26" d="M248.407,547.611l-38.368-430.647h421.812l-38.367,430.415l-172.888,47.902"/>
<path fill="#F16529" d="M420.945,558.656V152.308h172.422l-32.902,367.4"/>
<path fill="#EBEBEB" d="M288.402,204.977h132.543v52.785h-74.643l4.883,54.063h69.759v52.67H302.819 M305.144,391.001h53.017
	l3.721,42.205l59.063,15.811v55.111l-108.36-30.23"/>
<path fill="#FFFFFF" d="M553.023,204.977H420.712v52.785H548.14 M543.373,311.824h-122.66v52.785h65.109l-6.162,68.598
	l-58.947,15.811v54.879L528.839,473.9"/>
</svg>
