<?xml version="1.0" encoding="utf-8"?>
<!-- Generator: Adobe Illustrator 16.0.0, SVG Export Plug-In . SVG Version: 6.00 Build 0)  -->
<!DOCTYPE svg PUBLIC "-//W3C//DTD SVG 1.1//EN" "http://www.w3.org/Graphics/SVG/1.1/DTD/svg11.dtd">
<svg version="1.1" id="Layer_1" xmlns="http://www.w3.org/2000/svg" xmlns:xlink="http://www.w3.org/1999/xlink" x="0px" y="0px"
	 width="2499.281px" height="2591.114px" viewBox="0 -1979.114 2499.281 2591.114"
	 enable-background="new 0 -1979.114 2499.281 2591.114" xml:space="preserve">
<path fill="#131B28" d="M870.236,220.325l0.005-0.024l-15.996,56.69L870.236,220.325z M952.505,343.397l-17.623-0.104
	L952.505,343.397z M947.971,428.057h0.02l-105.607,0.382L947.971,428.057z M970.112,343.503l-17.632-0.105L970.112,343.503z
	 M957.229,420.86l18.392-70.157l-18.392,70.172V420.86z M1346.046,97.777l-34.268,161.1L1346.046,97.777z M1257.956,97.777
	l-26.012,120.348l26.012-120.358V97.777z"/>
<path fill="#131B28" d="M1340.176,90.528h-73.277c-4.065,0-8.098,3.264-8.972,7.239l-26.012,120.358l-26.017,120.362
	c-0.863,3.971-4.891,7.225-8.957,7.225h-51.865c-51.313,0-45.382-35.493-34.874-84.115l0.315-1.47l1.149-6.127l0.22-1.155
	l2.339-12.479l2.51-13.375c0.764-4.032,1.918-9.926,2.682-13.629l11.825-57.783l11.834-57.783c0.816-3.984-1.852-7.258-5.917-7.258
	h-75.215c-4.066,0-8.089,3.274-8.924,7.249l-16.172,76.728l-16.172,76.718c-0.015,0.034-0.02,0.081-0.024,0.115l-1.503,7.129
	c-18.625,85.045-13.686,166.145,87.555,168.683c1.656,0.048,2.936,0.063,2.936,0.063h158.914c4.066,0,8.089-3.265,8.943-7.249
	l34.267-161.086l34.272-161.1C1346.876,93.792,1344.241,90.533,1340.176,90.528z M1632.505,346.542c4.075,0,6.732,3.265,5.917,7.249
	l-7.115,34.777 M1624.201,423.361l7.115-34.798l-7.12,34.812L1624.201,423.361z M1615.277,430.681l0.038-0.009
	c-21.568,0.171-86.371,0.668-135.078,0.668C1539.514,431.34,1615.272,430.686,1615.277,430.681z M1436.521,301.748
	c-0.058-3.808,4.275-10.369,8.351-10.369l-9.152-0.153C1431.592,332.704,1436.521,301.748,1436.521,301.748z"/>
<path fill="#131B28" d="M1486.913,431.32c-0.468,0-0.945,0-1.413,0.01C1485.968,431.32,1486.445,431.32,1486.913,431.32z
	 M1632.505,346.542c4.075,0,6.732,3.265,5.917,7.249l-7.115,34.777l-1.159,5.669 M1521.604,431.239h-0.296H1521.604z
	 M1503.614,431.297h-1.045H1503.614z M1498.127,431.311c-0.582,0-1.15,0-1.723,0.01
	C1496.977,431.311,1497.545,431.311,1498.127,431.311z M1492.544,431.32h-1.513H1492.544z M1502.564,431.297l-4.442,0.009
	L1502.564,431.297z M1521.318,431.239c-5.932,0.023-11.849,0.048-17.68,0.063C1509.47,431.292,1515.396,431.263,1521.318,431.239z
	 M1624.201,423.38l5.96-29.138l-5.965,29.157L1624.201,423.38z M1496.409,431.32h-3.87H1496.409z M1485.481,431.33h-5.235H1485.481z
	 M1491.017,431.32h-4.123H1491.017z M419.098,302.621l11.387-50.458l-13.019,57.679l-12.488,58.752l10.947-51.504
	C416.765,313.105,418.201,306.592,419.098,302.621L419.098,302.621z M555.337,89.679h-80.474c-4.075,0-8.132,3.25-9.043,7.21
	l-7.636,33.68l-7.63,33.695c-0.897,3.96,1.694,7.21,5.765,7.21h81.099c4.07,0,8.107-3.25,8.985-7.225l7.373-33.681l7.377-33.656
	v-0.01C562.026,92.934,559.412,89.679,555.337,89.679L555.337,89.679z M537.823,201.719v-0.009L514.222,310.9L537.823,201.719
	L537.823,201.719z M304.047,563.518c0,0,40.566,0.52,66.349,0.52c-19.584,0-51.942-0.357-66.382-0.529L304.047,563.518z
	 M441.86,201.705l-11.396,50.458L441.86,201.705z"/>
<path fill="#131B28" d="M532.002,194.485h-81.108c-4.065,0-8.132,3.25-9.028,7.225l-11.396,50.458l-11.386,50.458
	c-0.897,3.971-2.329,10.484-3.174,14.469l-10.946,51.504l-10.938,51.503c-1.076,4.807-2.379,9.561-3.903,14.244
	c0,0-15.151,45.085-40.623,44.574c-1.089-0.023-2.139-0.033-3.184-0.062c-12.345-0.233-22.041-0.405-22.041-0.405h-0.02
	c-4.061-0.063-8.141,3.106-9.091,7.058l-8.412,35.359l-8.403,35.341c-0.94,3.951,1.607,7.216,5.654,7.282
	c14.444,0.172,46.799,0.534,66.388,0.534c63.629,0,97.17-35.255,118.673-136.701L514.227,310.9l23.602-109.196
	C538.688,197.739,536.063,194.485,532.002,194.485L532.002,194.485z M1684.185,427.207c-4.07,0-6.705-3.264-5.851-7.253
	l61.014-285.791 M1768.981,419.949l24.676-121.98L1768.981,419.949z"/>
<path fill="#131B28" d="M1679.222,423.585c-0.496-1.989-0.205-6.866,0.658-10.856l28.956-135.656l-30.507,142.89
	c-0.859,3.984,1.78,7.249,5.851,7.249h7.411C1687.516,427.207,1679.708,425.58,1679.222,423.585L1679.222,423.585z M1764.162,425.58
	c-2.214,0.896-7.363,1.632-11.434,1.632h7.411c4.07,0,8.06-3.264,8.866-7.258l1.47-7.249
	C1769.659,416.685,1766.381,424.678,1764.162,425.58L1764.162,425.58z M1781.341,358.959l10.89-53.837
	c-0.005,0.033-0.01,0.081-0.02,0.104L1781.341,358.959z M2022.085,153.313l3.359,13.886c0.926,3.975-1.642,7.201-5.697,7.21
	 M1770.461,412.705l10.86-53.741L1770.461,412.705z M2018.739,139.087l3.326,14.225L2018.739,139.087z M1792.221,305.127
	c0.812-3.984,2.152-10.441,2.997-14.388l11.634-54.5l-13.175,61.734L1792.221,305.127L1792.221,305.127z M1740.35,129.486
	c-0.806,3.846-1.847,8.704-2.528,11.92l-28.957,135.666l30.508-142.9L1740.35,129.486z"/>
<path fill="#131B28" d="M2025.425,167.199l-3.359-13.886l-3.326-14.225l-1.684-7.201c-6.591-25.592-25.932-40.366-67.92-40.366
	l-65.375-0.072l-60.207-0.071h-67.742c-4.066,0-8.089,3.25-8.929,7.234h-0.005l-2.996,14.154l-3.531,16.716l-0.988,4.681
	l-30.507,142.9l-28.956,135.657c-0.863,3.989-1.15,8.866-0.658,10.855c0.491,1.995,8.293,3.627,12.368,3.627h61.119
	c4.075,0,9.225-0.734,11.434-1.632c2.219-0.897,5.497-8.891,6.309-12.875l10.86-53.741l10.876-53.731l0.019-0.105l1.451-7.153
	l13.18-61.734l11.634-54.524c0.864-3.961,4.872-7.201,8.929-7.21l192.309-0.095C2023.783,174.4,2026.355,171.169,2025.425,167.199z"
	/>
<path fill="#131B28" d="M2272.993,41.635c-4.076,0.028-10.728,0.052-14.803,0.052h-61.553c-4.076,0-9.282,2.749-11.582,6.108
	L2048.95,247.2c-2.3,3.369-4.92,2.868-5.826-1.093l-10.016-43.935c-0.902-3.975-4.982-7.21-9.048-7.21h-87.508
	c-4.07,0-6.48,3.192-5.368,7.105l39.211,137.355c1.116,3.913,1.197,10.346,0.19,14.287l-17.088,66.478
	c-1.017,3.946,1.489,7.177,5.563,7.177h86.478c4.07,0,8.227-3.23,9.238-7.177l17.098-66.478c1.007-3.941,3.837-9.835,6.29-13.085
	l220.969-293.278c2.452-3.25,1.121-5.894-2.939-5.865L2272.993,41.635L2272.993,41.635z M1577.818,213.658l-0.005-0.081
	c-0.511,4.414-4.586,7.654-8.646,7.654h-110.938c-3.837,0-5.788-2.61-5.221-5.827c0.034-0.095,0.048-0.176,0.101-0.257
	c0,0-0.038,0.009-0.071,0.033c0.023-0.129,0.023-0.248,0.062-0.372l0.506-1.89c10.599-28.169,32.178-46.66,72.738-46.66
	C1572.006,166.264,1580.92,188.577,1577.818,213.658L1577.818,213.658z M1545.273,85.608c-142.399,0-176.142,86.434-195.071,173.669
	c-18.931,88.916-17.299,172.052,130.049,172.052h5.234c0.468-0.01,0.94-0.01,1.408-0.01h9.506c0.572-0.01,1.141-0.01,1.723-0.01
	l4.442-0.009h1.04c5.836-0.01,11.754-0.039,17.681-0.058h0.296c38.915-0.152,77.944-0.448,93.749-0.572
	c4.047-0.063,8.003-3.321,8.833-7.269l5.965-29.156l1.159-5.674l7.12-34.772c0.816-3.99-1.852-7.254-5.917-7.254h-132.479
	c-52.687,0-68.329-14.001-62.564-55.163h211.764l-0.02,0.023c0.053,0,0.101-0.023,0.144-0.023c3.364-0.063,6.476-2.376,7.711-5.464
	c0.234-0.597,0.435-1.212,0.511-1.852l-0.023,0.023c31.442-118.602,22.423-198.474-112.274-198.474L1545.273,85.608z
	 M872.24,213.205l-2.004,7.096l-0.005,0.024l-15.99,56.667l-15.986,56.657c-1.103,3.913-5.335,7.115-9.415,7.115h-84.63
	c-64.192,0-79.83-50.206-64.192-124.271c15.623-75.75,46.273-122.839,109.459-127.606
	C875.814,82.378,893.089,143.105,872.24,213.205L872.24,213.205z M930.281,336.406c0,0,39.903-96.884,48.97-152.849
	C991.605,108.643,954.099,0,809.223,0c-144.051,0-206.601,103.728-230.47,216.488c-23.865,113.576,7.405,213.186,150.635,212.37
	l112.995-0.42l105.607-0.382c4.07-0.038,8.227-3.265,9.263-7.191l18.391-70.171c1.025-3.938-1.46-7.178-5.526-7.201l-17.632-0.101
	l-17.623-0.104c-3.464-0.024-5.444-2.262-5.024-5.235c0.078-0.567,0.224-1.123,0.435-1.655L930.281,336.406L930.281,336.406z"/>
<path fill="#131B28" d="M1643.385,271.561c0,2.683-2.175,4.858-4.858,4.858c-2.683,0-4.857-2.175-4.857-4.858
	s2.175-4.858,4.857-4.858C1641.21,266.703,1643.385,268.878,1643.385,271.561z"/>
<path fill="#0868AC" d="M431.109-1526.324c-177.183,254.667-155.138,585.992-19.79,856.583c3.208,6.504,6.61,12.86,9.927,19.259
	c2.125,4.037,4.103,8.205,6.334,12.181c1.255,2.379,2.636,4.737,3.955,7.013c2.294,4.294,4.676,8.418,7.056,12.607
	c4.189,7.439,8.502,14.795,12.903,22.169c2.445,4.042,4.868,8.101,7.378,12.142c4.868,7.887,9.884,15.666,15.007,23.466
	c2.127,3.319,4.189,6.634,6.378,9.866c7.058,10.519,14.286,20.999,21.704,31.353l0.618,0.832c1.19,1.657,2.465,3.25,3.676,4.907
	c6.443,8.888,13.075,17.646,19.792,26.32c2.467,3.145,4.953,6.334,7.461,9.479c8.298,10.389,16.722,20.669,25.275,30.845
	c8.489,10.027,17.148,19.907,25.978,29.634c0.383,0.426,0.681,0.661,0.977,1.083c17.714,19.22,36.028,37.878,54.91,55.955
	c2.848,2.697,5.653,5.459,8.46,8.035c9.432,8.896,19.028,17.623,28.784,26.167c1.636,1.444,3.317,2.827,4.931,4.207
	c8.439,7.334,17.071,14.604,25.724,21.726c3.528,2.871,7.119,5.677,10.671,8.505c7.079,5.677,14.242,11.267,21.47,16.771
	l11.458,8.718c7.972,5.847,15.985,11.629,24.084,17.28c2.978,2.127,5.803,4.19,8.781,6.208c0.829,0.575,1.573,1.17,2.402,1.722
	c7.673,5.295,15.539,10.376,23.382,15.475c3.38,2.236,6.717,4.572,10.141,6.743c12.032,7.63,24.278,15.157,36.628,22.426
	c3.337,1.931,6.738,3.802,10.119,5.716c9.096,5.251,18.217,10.375,27.485,15.435c4.997,2.698,10.16,5.229,15.201,7.822
	c6.547,3.424,13.029,6.908,19.683,10.223c1.488,0.723,3.063,1.449,4.55,2.193c2.656,1.296,5.355,2.528,8.036,3.889
	c12.494,6.008,25.088,11.815,37.774,17.41c12.011,5.229,24.129,10.267,36.351,15.091c2.935,1.214,5.888,2.34,8.842,3.489
	c12.792,4.942,25.661,9.676,38.606,14.2c12.647,4.42,25.402,8.501,38.262,12.52c3.064,0.892,6.145,1.871,9.25,2.763
	c13.072,3.955,26.019,8.653,39.475,11.141c856.922,156.264,1105.83-514.95,1105.83-514.95
	C2047.976-317.353,1676.9-245.542,1325.32-325.492c-13.309-3.02-26.234-7.165-39.244-11.011
	c-15.961-4.738-31.816-9.828-47.554-15.266l-5.188-1.871c-11.163-3.955-22.268-8.07-33.311-12.351
	c-3.104-1.253-6.228-2.423-9.331-3.676c-12.077-4.768-24.067-9.749-35.968-14.943c-2.425-1.044-4.785-2.149-7.185-3.167
	c-13.12-5.938-26.158-12.046-39.115-18.328c-7.887-3.846-15.667-7.926-23.471-11.946c-5.207-2.74-10.499-5.333-15.665-8.205
	c-9.468-5.089-18.843-10.35-28.125-15.774c-3.124-1.762-6.334-3.463-9.479-5.29c-12.335-7.287-24.554-14.774-36.65-22.452
	c-3.315-2.123-6.591-4.377-9.884-6.587c-8.776-5.642-17.466-11.415-26.062-17.327c-2.87-1.914-5.612-3.994-8.419-5.886
	c-8.289-5.847-16.474-11.798-24.638-17.815c-3.697-2.74-7.332-5.529-10.925-8.27c-10.817-8.317-21.539-16.757-32.162-25.318
	c-9.338-7.648-18.565-15.426-27.68-23.34l-3.061-2.549c-9.835-8.674-19.537-17.497-29.102-26.467
	c-2.785-2.658-5.486-5.229-8.207-7.887c-7.087-6.722-14.061-13.56-20.917-20.512c-2.743-2.745-5.506-5.442-8.205-8.188
	c-8.716-8.927-17.263-17.984-25.659-27.146l-1.277-1.34c-8.866-9.71-17.547-19.59-26.041-29.63
	c-2.295-2.767-4.548-5.399-6.823-8.101c-6.348-7.639-12.59-15.361-18.729-23.17c-2.314-2.828-4.605-5.677-6.865-8.548
	c-7.376-9.562-14.583-19.111-21.642-28.804c-195.21-266.232-265.318-633.48-109.328-935.065"/>
<path fill="#0868AC" d="M981.113-1740.878c-128.122,184.39-121.17,431.235-21.217,626.254
	c16.733,32.782,35.669,64.394,56.675,94.618c19.195,27.507,40.475,60.244,65.962,82.374c9.249,10.182,18.896,20.087,28.761,29.845
	c2.489,2.552,5.038,4.975,7.569,7.482c9.565,9.291,19.301,18.43,29.377,27.296c0.426,0.317,0.787,0.723,1.191,1.042
	c0.127,0.104,0.232,0.148,0.299,0.276c11.116,9.756,22.616,19.152,34.31,28.38c2.593,1.975,5.145,4.037,7.78,6.077
	c11.691,8.971,23.638,17.793,35.884,26.211c0.384,0.256,0.679,0.513,1.039,0.787c5.401,3.741,10.907,7.208,16.392,10.798
	c2.613,1.701,5.103,3.532,7.757,5.125c8.737,5.612,17.583,11.076,26.594,16.305c1.3,0.787,2.512,1.444,3.764,2.188
	c7.76,4.463,15.625,8.866,23.511,13.116c2.766,1.553,5.549,2.915,8.378,4.359c5.439,2.872,10.902,5.76,16.431,8.5
	c0.828,0.426,1.68,0.787,2.487,1.148c11.288,5.573,22.66,10.928,34.289,15.988c2.488,1.105,5.059,2.083,7.566,3.102
	c9.312,3.955,18.688,7.804,28.125,11.416c3.996,1.509,8.057,2.976,12.031,4.424c8.567,3.167,17.178,6.078,25.828,8.993
	c3.934,1.252,7.76,2.527,11.691,3.741c12.31,3.824,24.49,8.653,37.33,10.797c661.604,109.607,814.364-399.795,814.364-399.795
	c-137.705,198.315-404.344,292.911-688.859,219.062c-16.389-4.313-32.638-9.143-48.724-14.476
	c-12.8-4.143-25.489-8.629-38.051-13.458c-9.47-3.624-18.873-7.416-28.208-11.372c-2.53-1.085-5.101-2.083-7.59-3.21
	c-11.627-5.066-23.129-10.41-34.5-16.029c-5.848-2.847-11.586-5.867-17.305-8.82l-9.993-5.144c-7.361-4-14.661-8.118-21.894-12.353
	c-1.721-0.977-3.507-1.934-5.252-2.954c-8.949-5.251-17.771-10.628-26.507-16.199c-2.7-1.722-5.293-3.571-7.994-5.335
	c-5.771-3.735-11.502-7.526-17.196-11.375c-12.12-8.437-24.04-17.156-35.754-26.146c-2.701-2.125-5.401-4.209-8.059-6.334
	c-124.551-98.339-223.271-232.709-270.208-385.086c-49.189-158.03-38.584-335.427,46.64-479.384"/>
<path fill="#0868AC" d="M1443.704-1901.185c-75.53,111.158-82.949,249.228-30.549,372.012
	c55.293,130.311,168.555,232.561,300.734,281.028c5.442,2.04,10.906,3.848,16.414,5.718c2.401,0.722,4.803,1.573,7.248,2.275
	c7.778,2.445,15.496,5.292,23.553,6.802c365.315,70.576,464.396-187.452,490.775-225.439
	c-86.793,124.975-232.665,154.97-411.634,111.541c-14.643-3.752-29.095-8.215-43.304-13.371
	c-17.502-6.214-34.667-13.347-51.421-21.365c-31.8-15.302-62.002-33.732-90.154-55.015
	c-160.155-121.509-259.643-353.326-155.141-542.116 M981.231,547.483l-23.641,53.832h-26.098l2.139-48.917l-19.212,48.917h-25.268
	l-0.668-53.832l2.792-13.295h17.895l-3.45,53.179l19.865-53.179h24.947l-1.804,53.837l19.699-53.837h15.59L981.231,547.483z
	 M1022.413,563.422c2.295-10.513,1.642-12.479-3.774-12.479h-8.213l-5.254,24.628l-8.045,25.754h-15.261l12.469-58.423l1.813-8.542
	h13.948l1.809,3.938c0,0,8.046-4.753,15.914-4.753c16.75,0,15.433,12.626,11.82,29.872L1022.413,563.422z M1071.993,525.814
	c-6.724,0-10.994-1.967-9.353-10.169c1.804-8.213,7.058-10.184,13.619-10.184c6.575,0,11.004,1.971,9.2,10.184
	C1083.809,523.686,1078.564,525.814,1071.993,525.814L1071.993,525.814z M1064.773,601.325h-15.107l2.958-26.26l5.254-24.289
	l-10.498-2.305l2.949-14.273h28.723L1064.773,601.325L1064.773,601.325z M1130.259,548.438l-18.873,2.31l-5.426,25.602
	c-1.479,7.063-1.479,9.033,4.768,9.033h12.631l-2.629,13.452c0,0-11.481,3.45-16.411,3.45c-19.369,0-19.206-10.665-15.752-26.594
	l5.254-25.11l-10.508-2.29l3.116-14.282h11.004l6.242-16.917h14.937l-3.617,16.917h18.386L1130.259,548.438L1130.259,548.438z
	 M1169.484,549.292c-8.857,0-13.457,4.604-15.261,12.808l25.276-2.133C1180.641,554.389,1179.495,549.292,1169.484,549.292z
	 M1151.766,574.239c-1.159,8.218,1.962,11,12.464,11h26.423l-2.625,12.474c0,0-15.919,4.429-27.734,4.429
	c-29.381,0-29.715-16.563-25.936-34.301c3.774-17.398,10.499-34.625,38.892-34.625c27.42,0,28.731,16.572,21.998,41.023H1151.766
	L1151.766,574.239z M1255.475,601.311h-15.094l2.954-26.26l10.67-49.9l-10.518-2.457l3.121-14.282h28.731L1255.475,601.311
	L1255.475,601.311z M1310.018,549.292c-8.871,0-13.462,4.604-15.271,12.808l25.281-2.133
	C1321.169,554.389,1320.024,549.292,1310.018,549.292z M1292.285,574.239c-1.146,8.218,1.976,11,12.469,11h26.432l-2.629,12.474
	c0,0-15.929,4.429-27.744,4.429c-29.381,0-29.705-16.563-25.931-34.301c3.779-17.398,10.508-34.625,38.9-34.625
	c27.41,0,28.728,16.572,21.999,41.023H1292.285L1292.285,574.239z M1405.026,550.108c0,0-19.202,0.162-24.456,0.162
	c-11.166,0-12.312,3.44-13.128,7.048l-0.668,3.283l35.461,2.634c0,0,0.162,11.324-1.313,17.724
	c-2.133,10.67-13.133,21.497-32.988,21.497c-9.854,0-25.773-3.765-25.773-3.765l2.787-12.966h24.461
	c10.837,0,12.316-2.963,12.979-5.907l0.815-4.267l-34.797-2.634c0,0-1.312-8.704,0.492-17.394
	c2.634-11.83,13.452-21.994,33.313-21.994c9.85,0,25.769,3.598,25.769,3.598L1405.026,550.108z M1471.022,550.108
	c0,0-19.197,0.162-24.456,0.162c-11.162,0-12.308,3.44-13.128,7.048l-0.668,3.283l35.465,2.634c0,0,0.162,11.324-1.313,17.724
	c-2.133,10.67-13.132,21.497-32.993,21.497c-9.844,0-25.769-3.765-25.769-3.765l2.792-12.966h24.456
	c10.832,0,12.307-2.963,12.975-5.907l0.816-4.267l-34.802-2.634c0,0-1.308-8.704,0.491-17.394
	c2.635-11.83,13.457-21.994,33.327-21.994c9.84,0,25.759,3.598,25.759,3.598L1471.022,550.108z M1491.685,612h-13.123l0.492-9.854
	c-4.768-0.31-7.225-3.76-6.075-9.52c1.804-8.203,6.896-10.169,13.624-10.169c6.562,0,10.985,1.966,9.19,10.169L1491.685,612z
	 M1579.488,550.776c-9.84,0-13.285,5.907-15.59,16.739c-2.295,10.838-1.642,17.231,8.203,17.231h13.624l7.554-33.971H1579.488z
	 M1601.979,592.621l-1.813,8.704l-13.776-0.167l-1.976-4.262c0,0-12.154,5.24-20.348,5.24c-21.016,0-22.004-17.227-18.229-34.625
	c3.774-17.729,11.986-34.473,32.83-34.473c7.56,0,17.729,3.774,17.729,3.774l8.369-28.393h15.108L1601.979,592.621L1601.979,592.621
	z M1656.316,550.108c-12.799,0-16.912,7.21-19.202,17.718c-2.133,10.67-1.141,17.895,11.481,17.895
	c13.137,0,17.078-7.058,19.374-17.895C1670.274,557.643,1669.606,550.108,1656.316,550.108L1656.316,550.108z M1645.159,602.304
	c-27.085,0-29.223-16.902-25.61-34.473c3.779-17.561,13.299-34.301,40.385-34.301c26.913,0,29.381,16.74,25.597,34.301
	C1681.761,585.726,1672.235,602.304,1645.159,602.304L1645.159,602.304z M1798.806,601.311l2.959-25.936l1.479-7.387
	c2.133-9.84,3.45-17.064-6.896-17.064h-8.041c0.329,5.087-0.663,10.837-1.971,16.902l-7.058,33.484h-15.266l2.954-25.936
	l1.475-7.387c2.138-9.84,3.445-17.064-6.881-17.064h-6.576l-10.837,50.387h-17.565l14.282-67.121h13.786l2.133,4.099
	c0,0,9.363-4.93,16.912-4.93c5.74,0,10.012,2.635,11.49,5.908c3.279-1.809,12.637-5.908,19.375-5.908
	c20.991,0,20.347,17.064,16.567,34.478l-7.058,33.479h-15.266V601.311L1798.806,601.311z M1868.571,550.108
	c-12.813,0-16.911,7.21-19.201,17.718c-2.134,10.67-1.141,17.895,11.485,17.895c13.128,0,17.079-7.058,19.374-17.895
	C1882.521,557.643,1881.866,550.108,1868.571,550.108z M1857.41,602.304c-27.095,0-29.219-16.902-25.606-34.473
	c3.775-17.561,13.295-34.301,40.381-34.301c26.928,0,29.381,16.74,25.601,34.301C1894.016,585.726,1884.491,602.304,1857.41,602.304
	z M1943.396,563.422c2.291-10.513,1.642-12.479-3.77-12.479h-8.217l-5.255,24.628l-8.05,25.754h-15.256l12.469-58.423l1.809-8.542
	h13.953l1.799,3.938c0,0,8.051-4.753,15.934-4.753c16.735,0,15.418,12.626,11.811,29.872L1943.396,563.422z M2002.186,549.292
	c-8.852,0-13.452,4.604-15.256,12.808l25.268-2.133C2013.348,554.389,2012.192,549.292,2002.186,549.292z M1984.458,574.239
	c-1.141,8.218,1.971,11,12.474,11h26.427l-2.624,12.474c0,0-15.924,4.429-27.734,4.429c-29.381,0-29.71-16.563-25.95-34.301
	c3.784-17.398,10.518-34.625,38.906-34.625c27.405,0,28.731,16.572,21.994,41.023H1984.458L1984.458,574.239z M2042.699,602.313
	c-6.896,0-11.156-1.966-9.348-10.006c1.632-8.228,6.719-10.184,13.618-10.184c6.399,0,10.828,1.956,9.196,10.184
	C2054.348,600.18,2049.108,602.313,2042.699,602.313z"/>
</svg>
