<?xml version="1.0" encoding="utf-8"?>
<!-- Generator: Adobe Illustrator 16.0.0, SVG Export Plug-In . SVG Version: 6.00 Build 0)  -->
<!DOCTYPE svg PUBLIC "-//W3C//DTD SVG 1.1//EN" "http://www.w3.org/Graphics/SVG/1.1/DTD/svg11.dtd">
<svg version="1.1" id="Layer_1" xmlns="http://www.w3.org/2000/svg" xmlns:xlink="http://www.w3.org/1999/xlink" x="0px" y="0px"
	 width="2500px" height="2500px" viewBox="0 0 2500 2500" enable-background="new 0 0 2500 2500" xml:space="preserve">
<path fill="#F0DB4F" d="M100.679,94.809h2298.643v2298.642H100.679V94.809z"/>
<path fill="#323330" d="M2211.19,1845.23c-16.824-104.881-85.216-192.938-287.768-275.096
	c-70.357-32.338-148.799-55.496-172.179-108.813c-8.303-31.027-9.396-48.508-4.152-67.299
	c15.077-60.963,87.838-79.973,145.522-62.492c37.146,12.455,72.324,41.08,93.519,86.746
	c99.201-64.238,98.981-63.803,168.247-107.939c-25.346-39.33-38.894-57.467-55.499-74.29
	c-59.651-66.644-140.934-100.948-270.942-98.326c-22.507,2.84-45.229,5.897-67.736,8.74
	c-64.894,16.388-126.731,50.474-163.002,96.141c-108.814,123.454-77.787,339.549,54.625,428.483
	c130.446,97.889,322.072,120.176,346.545,211.729c23.816,112.092-82.373,148.359-187.912,135.471
	c-77.787-16.168-121.048-55.717-167.81-127.605c-86.088,49.818-86.088,49.818-174.581,100.73
	c20.977,45.885,43.042,66.643,78.224,106.41c166.498,168.902,583.181,160.598,657.909-95.049
	C2207.258,1994.029,2227.362,1935.471,2211.19,1845.23z M1350.293,1151.267h-215.007c0,185.727-0.872,370.143-0.872,555.87
	c0,118.209,6.119,226.586-13.109,259.799c-31.464,65.33-112.966,57.248-150.111,44.572c-37.801-18.572-57.029-45.012-79.316-82.373
	c-6.118-10.707-10.707-19.01-12.238-19.666c-58.338,35.617-116.462,71.449-174.802,107.066
	c29.063,59.652,71.887,111.436,126.73,145.084c81.938,49.162,192.064,64.238,307.217,37.801
	c74.945-21.85,139.62-67.078,173.488-135.906c48.944-90.242,38.456-199.494,38.02-320.324
	C1351.386,1546.1,1350.293,1349.012,1350.293,1151.267L1350.293,1151.267z"/>
</svg>
