<?xml version="1.0" encoding="utf-8"?>
<!-- Generator: Adobe Illustrator 16.0.0, SVG Export Plug-In . SVG Version: 6.00 Build 0)  -->
<!DOCTYPE svg PUBLIC "-//W3C//DTD SVG 1.1//EN" "http://www.w3.org/Graphics/SVG/1.1/DTD/svg11.dtd">
<svg version="1.1" id="Layer_1" xmlns="http://www.w3.org/2000/svg" xmlns:xlink="http://www.w3.org/1999/xlink" x="0px" y="0px"
	 width="2514.497px" height="2514.496px" viewBox="-7.248 -390.748 2514.497 2514.496"
	 enable-background="new -7.248 -390.748 2514.497 2514.496" xml:space="preserve">
<path fill="none" d="M-18.458,6.684h2500v1732.793h-2500V6.684z"/>
<path fill="#5D87A1" d="M746.801,1406.141h-67.682c-2.394-114.242-8.985-221.645-19.762-322.285h-0.603l-103.046,322.285h-51.53
	l-102.432-322.285h-0.589c-7.599,96.626-12.385,204.054-14.373,322.285h-61.692c3.976-143.774,13.968-278.563,29.937-404.38h83.887
	l97.632,297.135h0.603l98.233-297.135h80.264C733.226,1149.132,743.609,1283.934,746.801,1406.141 M1040.325,1107.79
	c-27.557,149.541-63.915,258.198-109.036,326.024c-35.156,52.21-73.673,78.342-115.616,78.342c-11.182,0-24.979-3.375-41.328-10.071
	v-36.058c7.991,1.151,17.368,1.805,28.146,1.805c19.592,0,35.338-5.388,47.345-16.191c14.36-13.157,21.54-27.949,21.54-44.311
	c0-11.221-5.598-34.161-16.767-68.898l-74.273-230.655h66.491l53.309,172.508c11.98,39.171,16.977,66.519,14.976,82.095
	c29.152-77.857,49.516-162.751,61.116-254.615h64.099V1107.79z"/>
<path fill="#F8981D" d="M1941.249,1406.141h-192.256v-404.38h64.674v354.603h127.582V1406.141z M1698.666,1415.91l-74.339-36.686
	c6.592-5.415,12.896-11.274,18.571-18.062c31.599-37.117,47.358-92.009,47.358-164.713c0-133.782-52.498-200.705-157.532-200.705
	c-51.504,0-91.682,16.976-120.416,50.941c-31.571,37.143-47.332,91.838-47.332,164.15c0,71.082,13.969,123.227,41.918,156.303
	c25.568,29.963,64.111,44.965,115.654,44.965c19.226,0,36.869-2.354,52.942-7.103l96.782,56.344L1698.666,1415.91z
	 M1457.849,1325.223c-16.374-26.341-24.562-68.637-24.562-126.955c0-101.817,30.931-152.784,92.858-152.784
	c32.37,0,56.095,12.188,71.266,36.516c16.349,26.379,24.575,68.297,24.575,125.804c0,102.654-30.958,153.988-92.846,153.988
	C1496.758,1361.804,1473.033,1349.653,1457.849,1325.223 M1336.793,1294.056c0,34.293-12.582,62.425-37.719,84.463
	c-25.164,21.945-58.907,32.944-101.19,32.944c-39.55,0-77.896-12.634-115.014-37.771l17.382-34.725
	c31.938,15.996,60.855,23.947,86.816,23.947c24.365,0,43.408-5.401,57.219-16.112c13.798-10.751,22.024-25.831,22.024-44.899
	c0-24.025-16.754-44.559-47.488-61.758c-28.342-15.563-85.024-48.104-85.024-48.104c-30.722-22.391-46.103-46.429-46.103-86.031
	c0-32.774,11.47-59.233,34.423-79.361c22.979-20.206,52.629-30.277,88.975-30.277c37.535,0,71.658,10.058,102.393,29.964
	l-15.59,34.736c-26.288-11.169-52.236-16.753-77.831-16.753c-20.729,0-36.737,4.982-47.868,14.987
	c-11.221,9.967-18.14,22.718-18.14,38.36c0,23.907,17.106,44.703,48.679,62.241c28.721,15.59,86.816,48.691,86.816,48.691
	C1321.059,1230.951,1336.793,1254.768,1336.793,1294.056"/>
<path fill="#5D87A1" d="M2022.441,866.318c-39.105-0.994-69.382,2.942-94.794,13.693c-7.337,2.93-19.003,2.93-20.023,12.202
	c3.963,3.924,4.421,10.254,7.86,15.668c5.859,9.771,16.073,22.914,25.398,29.768c10.24,7.847,20.521,15.616,31.297,22.456
	c19.004,11.758,40.545,18.598,59.063,30.316c10.79,6.813,21.515,15.629,32.317,22.966c5.311,3.911,8.711,10.254,15.604,12.699v-1.49
	c-3.453-4.395-4.434-10.751-7.821-15.643l-14.675-14.151c-14.177-19.042-31.794-35.665-50.797-49.319
	c-15.643-10.776-49.856-25.425-56.199-43.447l-0.994-0.994c10.751-1.007,23.502-4.904,33.717-7.899
	c16.623-4.381,31.781-3.388,48.836-7.769c7.847-1.962,15.629-4.421,23.502-6.84v-4.408c-8.841-8.802-15.145-20.494-24.444-28.813
	c-24.875-21.487-52.288-42.505-80.616-60.096c-15.172-9.796-34.685-16.101-50.837-24.432c-5.82-2.942-15.629-4.394-19.056-9.285
	c-8.763-10.751-13.693-24.902-20.05-37.628c-14.125-26.851-27.845-56.644-40.033-85.037c-8.815-19.043-14.178-38.059-24.929-55.676
	c-50.353-83.05-105.034-133.351-189.078-182.723c-18.062-10.279-39.55-14.661-62.503-20.049l-36.659-1.936
	c-7.821-3.427-15.655-12.726-22.482-17.12c-27.884-17.578-99.673-55.676-120.18-5.376c-13.21,31.795,19.539,63.053,30.787,79.179
	c8.305,11.195,19.068,23.934,24.875,36.646c3.44,8.305,4.408,17.12,7.848,25.896c7.821,21.502,15.132,45.422,25.412,65.485
	c5.362,10.228,11.208,20.978,18.062,30.237c3.924,5.415,10.751,7.809,12.241,16.637c-6.813,9.73-7.35,24.417-11.261,36.633
	c-17.577,55.205-10.711,123.594,14.204,164.163c7.795,12.216,26.393,39.105,51.268,28.8c22.024-8.789,17.146-36.634,23.477-61.052
	c1.451-5.898,0.497-9.77,3.427-13.641v0.955c6.813,13.667,13.693,26.837,20.01,40.544c15.158,23.921,41.552,48.849,63.536,65.419
	c11.706,8.842,20.979,23.96,35.64,29.361v-1.465h-0.968c-2.969-4.381-7.311-6.343-11.208-9.743
	c-8.815-8.802-18.572-19.553-25.412-29.31c-20.481-27.373-38.608-57.677-54.695-88.948c-7.873-15.171-14.661-31.755-21.004-46.899
	c-2.956-5.847-2.956-14.661-7.86-17.604c-7.351,10.738-18.062,20.037-23.424,33.194c-9.299,21.043-10.267,46.926-13.72,73.842
	l-1.923,0.941c-15.563-3.91-20.978-20.01-26.89-33.677c-14.635-34.711-17.094-90.427-4.395-130.473
	c3.4-10.241,18.114-42.493,12.242-52.25c-2.943-9.351-12.726-14.674-18.088-22.037c-6.304-9.26-13.21-20.979-17.604-31.258
	c-11.718-27.348-17.616-57.651-30.237-84.985c-5.898-12.739-16.14-25.922-24.431-37.653c-9.313-13.184-19.553-22.47-26.916-38.099
	c-2.433-5.375-5.847-14.164-1.936-20.011c0.954-3.923,2.942-5.388,6.84-6.369c6.33-5.349,24.418,1.452,30.761,4.395
	c18.114,7.324,33.259,14.164,48.378,24.418c6.84,4.904,14.178,14.19,22.953,16.636h10.28c15.603,3.4,33.193,0.942,47.881,5.362
	c25.883,8.318,49.333,20.521,70.363,33.691c63.993,40.583,116.766,98.246,152.393,167.119c5.846,11.221,8.331,21.501,13.667,33.206
	c10.293,23.96,23.019,48.392,33.232,71.842c10.268,22.953,20.05,46.39,34.711,65.458c7.312,10.254,36.686,15.629,49.856,21.005
	c9.743,4.381,24.914,8.278,33.703,13.654c16.623,10.24,33.181,21.998,48.81,33.259
	C1996.532,844.32,2020.989,856.535,2022.441,866.318 M1524.066,441.732c-6.746-0.07-13.471,0.757-19.998,2.459v0.98h0.942
	c3.937,7.809,10.776,13.223,15.655,20.037c3.937,7.834,7.35,15.603,11.208,23.424l0.941-0.968
	c6.893-4.879,10.319-12.699,10.319-24.431c-2.969-3.453-3.427-6.827-5.898-10.254
	C1534.359,448.089,1528.016,445.656,1524.066,441.732"/>
<path fill="#F8981D" d="M2068.976,1406.075h10.123v-49.542h-15.185l-12.386,33.808l-13.458-33.808h-14.622v49.542h9.561v-37.693
	h0.536l14.1,37.693h7.285l14.046-37.693V1406.075z M1987.43,1406.075h10.712v-41.146h14.021v-8.41h-39.341v8.41h14.583
	L1987.43,1406.075L1987.43,1406.075z"/>
</svg>
