<svg width="1524" height="1524" viewBox="0 0 1524 1524" fill="none" xmlns="http://www.w3.org/2000/svg">
<path d="M760.798 13L1303.88 320.187V934.702L760.798 1241.89L217.713 934.702V320.187L760.798 13Z" fill="white"/>
<path d="M1208.32 913.511L780.164 1155.72V967.118L1046.94 820.331L1208.32 913.511ZM1237.65 886.989V380.53L1081.04 471.044V796.615L1237.65 886.989ZM314.402 913.511L742.555 1155.72V967.118L475.643 820.331L314.402 913.511ZM285.072 886.989V380.53L441.683 471.044V796.615L285.072 886.989ZM303.456 347.692L742.555 99.3043V281.596L461.189 436.382L458.944 437.645L303.456 347.692ZM1219.26 347.692L780.164 99.3043V281.596L1061.53 436.242L1063.78 437.505L1219.26 347.692Z" fill="#8ED6FB"/>
<path d="M741.994 924.177L478.731 779.354V492.655L741.994 644.635V924.177ZM779.603 924.177L1042.87 779.494V492.655L779.603 644.635V924.177ZM496.553 459.537L760.798 314.293L1025.04 459.537L760.798 612.078L496.553 459.537Z" fill="#1C78C0"/>
<path d="M318.205 1456.38H363.557L409.788 1301.55H365.591L338.215 1411.4L309.025 1301.55H270.764L241.299 1411.4L214.198 1301.55H170L215.957 1456.38H261.309L289.894 1357.19L318.205 1456.38ZM412.152 1379.4C412.152 1425.88 443.651 1460.25 493.181 1460.25C531.497 1460.25 552.111 1437.15 557.993 1426.21L531.167 1405.76C526.769 1412.28 514.675 1424.72 493.731 1424.72C471.027 1424.72 454.536 1409.91 453.656 1389.19H562.116C562.391 1386.2 562.391 1383.27 562.391 1380.29C562.391 1329.67 535.29 1297.68 487.574 1297.68C443.651 1297.68 412.152 1332.6 412.152 1379.4ZM454.866 1362.5C456.625 1344.76 468.993 1331.11 488.179 1331.11C506.759 1331.11 520.282 1343.54 521.162 1362.5H454.866ZM577.728 1456.38H616.044V1440.41C620.167 1445.44 635.504 1460.25 661.726 1460.25C705.923 1460.25 737.147 1426.82 737.147 1379.13C737.147 1331.16 708.287 1297.73 664.089 1297.73C637.593 1297.73 622.256 1312.54 618.408 1317.85V1242.31H577.783V1456.38H577.728ZM617.198 1379.4C617.198 1350.39 634.295 1333.82 656.668 1333.82C680.251 1333.82 696.138 1352.49 696.138 1379.4C696.138 1406.92 679.647 1424.11 656.668 1424.11C631.931 1424.11 617.198 1403.94 617.198 1379.4ZM752.979 1511.75H793.604V1440.35C797.452 1445.38 812.734 1460.19 839.286 1460.19C883.483 1460.19 912.344 1426.76 912.344 1378.8C912.344 1331.44 881.119 1297.68 836.922 1297.68C810.7 1297.68 795.363 1312.49 791.24 1317.79V1301.49H752.924V1511.75H752.979ZM792.449 1378.52C792.449 1353.93 807.182 1333.82 831.919 1333.82C854.898 1333.82 871.389 1351 871.389 1378.52C871.389 1405.49 855.502 1424.11 831.919 1424.11C809.546 1424.11 792.449 1407.53 792.449 1378.52ZM919.71 1408.41C919.71 1440.96 946.206 1460.25 977.43 1460.25C995.132 1460.25 1006.9 1454.94 1014.87 1446.32L1017.51 1456.38H1053.46V1358.35C1053.46 1323.7 1038.72 1297.68 989.25 1297.68C965.666 1297.68 942.413 1306.57 928.56 1316.02L943.898 1343.87C955.387 1337.96 969.515 1332.93 984.852 1332.93C1002.83 1332.93 1012.83 1342.11 1012.83 1355.75V1365.81C1007.23 1361.94 995.132 1357.25 979.519 1357.25C943.568 1357.19 919.71 1377.91 919.71 1408.41ZM960.334 1407.2C960.334 1394.49 971.219 1385.59 986.831 1385.59C1002.44 1385.59 1013.66 1393.61 1013.66 1407.2C1013.66 1420.24 1002.44 1428.53 987.161 1428.53C971.878 1428.53 960.334 1419.96 960.334 1407.2ZM1152.13 1424.11C1126.51 1424.11 1108.26 1405.43 1108.26 1379.13C1108.26 1354.26 1124.48 1333.82 1150.7 1333.82C1168.07 1333.82 1179.89 1342.38 1186.65 1348.63L1198.14 1314.26C1188.14 1306.57 1172.2 1297.68 1149.55 1297.68C1102.71 1297.68 1067.64 1332.32 1067.64 1379.4C1067.64 1426.48 1101.83 1460.25 1149.82 1460.25C1172.2 1460.25 1189.02 1450.8 1197.81 1443.67L1186.93 1410.24C1180.11 1415.82 1167.74 1424.11 1152.13 1424.11ZM1213.1 1456.38H1253.72V1376.42L1305.28 1456.38H1353L1294.67 1371.67L1348.88 1301.49H1303.2L1253.72 1366.64V1242.31H1213.1V1456.38Z" fill="#1A1C1C"/>
</svg>
