<?xml version="1.0" standalone="no"?>
<!DOCTYPE svg PUBLIC "-//W3C//DTD SVG 20010904//EN"
 "http://www.w3.org/TR/2001/REC-SVG-20010904/DTD/svg10.dtd">
<svg version="1.0" xmlns="http://www.w3.org/2000/svg"
 width="800.000000pt" height="800.000000pt" viewBox="0 0 800.000000 800.000000"
 preserveAspectRatio="xMidYMid meet">
<metadata>
Created by potrace 1.11, written by Peter Selinger 2001-2013
</metadata>
<g transform="translate(0.000000,800.000000) scale(0.100000,-0.100000)"
fill="#000000" stroke="none">
<path d="M2140 6496 c6 -5 14 -7 178 -36 31 -6 68 -12 82 -15 14 -3 48 -10 75
-15 69 -14 187 -48 265 -76 36 -13 69 -24 72 -24 17 0 269 -119 278 -131 3 -3
19 -13 35 -22 17 -9 43 -27 59 -41 16 -14 37 -28 47 -31 11 -4 19 -10 19 -14
0 -5 17 -20 38 -33 60 -40 195 -178 243 -248 24 -36 44 -67 44 -70 1 -3 15
-32 32 -65 40 -77 96 -242 107 -315 3 -19 8 -46 11 -60 24 -117 21 -426 -4
-493 -6 -14 -8 -27 -6 -29 7 -7 -21 -99 -50 -168 -39 -92 -117 -202 -210 -296
-75 -75 -223 -194 -243 -194 -4 0 -17 -8 -28 -18 -33 -31 -184 -113 -257 -141
-26 -10 -33 -35 -11 -37 5 0 16 -3 24 -7 8 -3 33 -11 55 -17 84 -24 199 -80
300 -145 162 -106 276 -222 350 -360 93 -173 119 -293 130 -605 14 -389 30
-471 109 -558 35 -39 57 -51 141 -80 73 -26 134 -39 181 -41 23 -1 22 28 23
-414 l1 -197 823 6 c452 3 920 6 1039 7 120 1 218 6 218 10 0 5 4 6 8 3 13 -8
70 -8 142 -1 130 12 145 14 175 20 39 8 119 26 175 40 8 2 15 4 15 5 0 1 9 3
21 5 29 6 263 84 299 100 39 18 97 41 110 44 6 2 19 8 30 14 11 6 23 10 28 9
4 -1 7 2 7 7 0 5 10 11 23 15 46 12 346 188 355 208 2 5 10 8 17 8 7 0 15 3
17 8 2 4 28 26 58 49 30 23 71 56 91 75 20 18 54 49 76 69 l40 37 0 491 1 491
-24 0 c-13 1 -80 1 -149 1 -69 0 -241 0 -384 -1 l-259 0 -6 -32 c-3 -18 -8
-43 -10 -54 -2 -12 -7 -39 -10 -60 -4 -22 -8 -46 -11 -54 -2 -8 -6 -31 -9 -50
-3 -19 -8 -46 -11 -60 -3 -14 -8 -43 -10 -65 -3 -22 -8 -47 -10 -55 -2 -8 -7
-31 -10 -50 -26 -152 -47 -193 -127 -247 -72 -48 -185 -101 -273 -128 -33 -10
-67 -20 -75 -23 -22 -8 -20 -7 -80 -20 -95 -20 -166 -32 -216 -36 -16 -1 -34
-4 -39 -8 -12 -7 -375 -2 -430 6 -77 11 -231 49 -295 73 -73 27 -203 93 -208
105 -2 5 -10 8 -17 8 -7 0 -15 3 -17 8 -1 4 -28 26 -59 49 -65 50 -224 209
-272 273 -57 75 -105 166 -204 385 -7 17 -15 40 -17 50 -2 11 -9 31 -14 45 -5
14 -11 30 -12 35 -10 34 -21 84 -26 110 -2 17 -7 43 -9 60 -18 104 -26 770
-12 960 6 84 32 207 55 265 5 14 10 29 10 33 0 4 4 20 10 35 6 15 13 36 18 47
4 11 8 26 10 33 11 56 190 370 215 380 5 2 9 8 9 13 0 9 2 12 86 100 92 97
186 167 306 228 83 42 183 85 190 81 2 -1 17 4 33 10 31 12 51 18 95 26 14 2
36 7 49 10 109 25 544 25 701 0 158 -25 420 -136 527 -222 36 -29 64 -78 68
-119 1 -5 4 -21 8 -35 3 -14 9 -38 11 -55 3 -16 8 -43 11 -60 4 -16 8 -39 10
-50 3 -24 33 -190 40 -225 8 -37 25 -144 25 -154 0 -4 11 -6 25 -4 14 3 27 3
29 -1 2 -3 175 -5 384 -3 l379 2 1 492 0 491 -52 47 c-28 27 -63 60 -79 74
-70 65 -275 208 -347 242 -8 4 -17 10 -20 13 -25 29 -366 182 -500 225 -47 15
-92 30 -100 33 -8 3 -24 8 -35 10 -11 2 -31 7 -45 12 -14 5 -43 13 -65 17 -22
4 -42 8 -45 9 -66 18 -144 28 -305 41 -96 7 -4272 18 -4265 10z"/>
<path d="M954 5731 c-2 -2 -4 -320 -4 -707 0 -552 3 -703 13 -706 17 -6 829
-1 958 6 120 6 238 28 307 57 90 38 142 64 142 71 0 5 6 8 14 8 21 0 135 120
170 181 171 290 93 735 -162 922 -65 48 -217 123 -277 136 -82 19 -135 22
-475 27 -595 9 -681 9 -686 5z"/>
<path d="M950 2884 l0 -664 23 -5 c33 -7 78 -15 121 -21 22 -3 44 -8 49 -11 5
-3 23 -7 40 -9 18 -2 43 -6 57 -9 14 -4 39 -8 55 -11 17 -2 50 -9 75 -14 44
-10 72 -15 140 -26 19 -3 38 -8 42 -10 4 -3 7 -104 7 -227 0 -122 0 -256 0
-297 l1 -75 955 -2 c525 0 955 3 955 7 0 10 -80 37 -130 44 -19 2 -50 9 -68
15 -18 5 -35 10 -37 10 -3 0 -26 9 -51 21 -26 11 -51 20 -56 20 -5 0 -21 8
-36 17 -135 83 -164 108 -212 182 -16 25 -33 51 -37 56 -12 15 -80 164 -98
215 -37 102 -42 144 -50 425 -7 243 -16 366 -31 440 -8 43 -37 139 -44 145 -3
3 -18 32 -35 65 -40 81 -169 209 -255 254 -108 55 -232 93 -345 106 -135 14
-200 17 -602 20 l-433 3 0 -664z"/>
</g>
</svg>
